HIERARCHY
ROOT Hips
{
	OFFSET 0.000000 0.000000 0.000000
	CHANNELS 6 Xposition Yposition Zposition Xrotation Yrotation Zrotation
	JOINT LeftUpLeg_virtual
	{
		OFFSET 0.000000 0.000000 0.000000
		CHANNELS 3 Xrotation Yrotation Zrotation
		JOINT LeftUpLeg
		{
			OFFSET 15.427100 -6.655098 0.678600
			CHANNELS 3 Xrotation Yrotation Zrotation
			JOINT LeftLeg
			{
				OFFSET 4.081073 -39.591068 13.024000
				CHANNELS 3 Xrotation Yrotation Zrotation
				JOINT LeftFoot
				{
					OFFSET -4.081074 -37.707932 -15.979700
					CHANNELS 3 Xrotation Yrotation Zrotation
					JOINT LeftToeBase
					{
						OFFSET 5.346399 -15.068900 20.645000
						CHANNELS 3 Xrotation Yrotation Zrotation
						JOINT LeftToe_End
						{
							OFFSET 2.754700 0.931300 11.300900
							CHANNELS 3 Xrotation Yrotation Zrotation
							End Site
							{
								OFFSET 0 0 0
							}
						}
					}
				}
			}
		}
	}
	JOINT RightUpLeg_virtual
	{
		OFFSET 0.000000 0.000000 0.000000
		CHANNELS 3 Xrotation Yrotation Zrotation
		JOINT RightUpLeg
		{
			OFFSET -15.569500 -6.655098 0.678600
			CHANNELS 3 Xrotation Yrotation Zrotation
			JOINT RightLeg
			{
				OFFSET -4.081825 -39.591045 13.023800
				CHANNELS 3 Xrotation Yrotation Zrotation
				JOINT RightFoot
				{
					OFFSET 4.081824 -37.707954 -15.979600
					CHANNELS 3 Xrotation Yrotation Zrotation
					JOINT RightToeBase
					{
						OFFSET -5.346400 -15.068900 20.645000
						CHANNELS 3 Xrotation Yrotation Zrotation
						JOINT RightToe_End
						{
							OFFSET -2.754700 0.931300 11.300900
							CHANNELS 3 Xrotation Yrotation Zrotation
							End Site
							{
								OFFSET 0 0 0
							}
						}
					}
				}
			}
		}
	}
	JOINT Spine_virtual
	{
		OFFSET 0.000000 0.000000 0.000000
		CHANNELS 3 Xrotation Yrotation Zrotation
		JOINT Spine
		{
			OFFSET -0.279200 12.230698 -2.892100
			CHANNELS 3 Xrotation Yrotation Zrotation
			JOINT Spine1
			{
				OFFSET -0.232667 10.192268 -1.242267
				CHANNELS 3 Xrotation Yrotation Zrotation
				JOINT Spine1_split
				{
					OFFSET -0.232667 10.192268 -1.242267
					CHANNELS 3 Xrotation Yrotation Zrotation
					JOINT Spine2
					{
						OFFSET -0.232667 10.192268 -1.242267
						CHANNELS 3 Xrotation Yrotation Zrotation
						JOINT Neck_virtual
						{
							OFFSET 0.000000 0.000000 0.000000
							CHANNELS 3 Xrotation Yrotation Zrotation
							JOINT Neck
							{
								OFFSET -0.418800 17.814194 8.416900
								CHANNELS 3 Xrotation Yrotation Zrotation
								JOINT Head
								{
									OFFSET 0.000000 7.031097 3.806800
									CHANNELS 3 Xrotation Yrotation Zrotation
									JOINT HeadTop_End
									{
										OFFSET 0.000000 24.646606 12.978600
										CHANNELS 3 Xrotation Yrotation Zrotation
										End Site
										{
											OFFSET 0 0 0
										}
									}
								}
							}
						}
						JOINT LeftShoulder_virtual
						{
							OFFSET 0.000000 0.000000 0.000000
							CHANNELS 3 Xrotation Yrotation Zrotation
							JOINT LeftShoulder
							{
								OFFSET 8.476499 7.247704 -3.868750
								CHANNELS 3 Xrotation Yrotation Zrotation
								JOINT LeftShoulder_split
								{
									OFFSET 8.476499 7.247704 -3.868750
									CHANNELS 3 Xrotation Yrotation Zrotation
									JOINT LeftArm
									{
										OFFSET 9.308998 -2.777710 0.208600
										CHANNELS 3 Xrotation Yrotation Zrotation
										JOINT LeftForeArm
										{
											OFFSET 29.972298 0.000000 0.000000
											CHANNELS 3 Xrotation Yrotation Zrotation
											JOINT LeftHand
											{
												OFFSET 26.026505 0.000000 0.000000
												CHANNELS 3 Xrotation Yrotation Zrotation
												End Site
												{
													OFFSET 0 0 0
												}
											}
										}
									}
								}
							}
						}
						JOINT RightShoulder_virtual
						{
							OFFSET 0.000000 0.000000 0.000000
							CHANNELS 3 Xrotation Yrotation Zrotation
							JOINT RightShoulder
							{
								OFFSET -7.570500 7.247704 -3.868750
								CHANNELS 3 Xrotation Yrotation Zrotation
								JOINT RightShoulder_split
								{
									OFFSET -7.570500 7.247704 -3.868750
									CHANNELS 3 Xrotation Yrotation Zrotation
									JOINT RightArm
									{
										OFFSET -9.308998 -2.777710 0.208500
										CHANNELS 3 Xrotation Yrotation Zrotation
										JOINT RightForeArm
										{
											OFFSET -29.972300 0.000000 0.000000
											CHANNELS 3 Xrotation Yrotation Zrotation
											JOINT RightHand
											{
												OFFSET -26.026505 0.000000 0.000000
												CHANNELS 3 Xrotation Yrotation Zrotation
												End Site
												{
													OFFSET 0 0 0
												}
											}
										}
									}
								}
							}
						}
					}
				}
			}
		}
	}
}
MOTION
Frames: 5
Frame Time: 0.03333333
0.856456 86.921051 12.688520 0.000000 0.000000 0.000000 174.474532 -46.435256 171.450329 -10.105156 24.524107 25.681648 27.786302 3.368074 -0.067284 -19.337234 15.384014 -22.873042 0.184932 -4.716331 -4.567812 0.000000 0.000000 0.000000 174.942550 -48.214527 171.454865 -25.502567 -12.158600 -10.087788 31.935041 -11.084614 2.422344 -10.538948 -12.125294 19.581708 1.236655 2.982845 -4.363814 0.000000 0.000000 0.000000 176.160155 -53.536286 172.891226 4.751673 2.175827 3.040045 -0.597117 0.352931 1.779545 0.250543 -0.531558 0.002716 0.000000 0.000000 0.000000 4.875375 1.599307 2.949905 -4.875571 15.210881 6.839504 -11.288453 7.872310 -0.897570 0.000000 0.000000 0.000000 3.847155 -0.376468 2.984146 1.193660 3.750954 -3.253077 -3.380180 -7.369725 0.549739 -19.691997 5.397283 -64.062414 19.678518 -13.353994 1.004870 0.000000 0.000000 0.000000 0.817090 -0.662705 4.411986 -3.497457 0.471104 19.388926 -16.662796 -9.698621 -5.177532 7.285218 31.217612 48.839042 7.962038 27.750060 -4.590686 0.000000 0.000000 0.000000 
1.393672 86.407257 9.800020 0.000000 0.000000 0.000000 175.333114 -44.855239 172.529991 -8.777200 25.246170 26.956002 29.813431 4.079275 -0.076046 -17.683993 14.666479 -25.155797 -3.510288 -4.920478 -4.827479 0.000000 0.000000 0.000000 175.744210 -46.511017 172.491045 -26.878171 -10.943578 -8.457082 33.072343 -11.426342 1.725919 -9.008930 -12.063744 20.230913 0.877186 2.876977 -4.921557 0.000000 0.000000 0.000000 177.174274 -51.762817 174.617912 4.856519 0.928588 3.129616 -1.009907 -0.013516 2.085800 0.174404 -0.392016 -0.008638 0.000000 0.000000 0.000000 4.932872 1.340454 3.063053 -5.114254 14.689780 6.008802 -10.493976 8.827109 -0.906376 0.000000 0.000000 0.000000 3.729225 -0.656308 3.379236 0.947783 3.251781 -3.997226 -3.367269 -6.792462 0.289305 -17.250498 3.723093 -64.990152 17.836489 -12.514121 0.279215 0.000000 0.000000 0.000000 0.610457 -1.007982 4.629182 -3.821454 0.458343 19.616966 -15.115332 -9.811504 -4.893562 5.299370 31.997568 49.429686 6.359037 27.533543 -4.699559 0.000000 0.000000 0.000000 
1.802700 85.805984 6.627867 0.000000 0.000000 0.000000 176.713250 -43.864151 173.819408 -7.509504 24.606272 28.279196 32.196682 4.468559 -0.099668 -15.734606 13.496883 -26.716268 -9.473220 -4.789175 -5.537156 0.000000 0.000000 0.000000 176.900356 -45.333536 173.468842 -27.483039 -10.040656 -6.231103 33.903741 -11.378603 0.896395 -8.576040 -11.734693 20.174547 1.149035 2.783379 -5.853521 0.000000 0.000000 0.000000 178.406686 -50.195559 176.143639 5.131955 -0.094087 3.392435 -1.399393 -0.347960 2.340037 0.125663 -0.264289 -0.030308 0.000000 0.000000 0.000000 5.004767 1.128889 3.111701 -5.523607 14.344772 5.390618 -9.937837 10.012513 -0.963465 0.000000 0.000000 0.000000 3.627346 -0.903847 3.658149 0.684064 2.629483 -4.177180 -3.096215 -6.365661 0.040342 -14.631285 1.834907 -66.014598 15.823749 -12.022339 -0.700653 0.000000 0.000000 0.000000 0.425500 -1.323335 4.692848 -4.022629 0.788380 19.652613 -13.256999 -9.988890 -4.282462 3.405158 32.737387 50.030333 4.919386 27.394851 -4.733955 0.000000 0.000000 0.000000 
1.977687 85.185493 3.124060 0.000000 0.000000 0.000000 178.484058 -42.960254 175.242532 -6.559677 22.742476 29.427949 34.443606 4.868456 -0.324435 -14.196506 12.176186 -27.071064 -17.044035 -4.152250 -6.796778 0.000000 0.000000 0.000000 178.358847 -44.643551 174.418921 -27.151778 -9.633654 -3.415756 34.528980 -11.203343 -0.139710 -10.268139 -11.441883 18.452238 3.448745 2.592891 -7.081010 0.000000 0.000000 0.000000 179.860164 -48.754300 177.503106 5.618170 -0.710192 3.867471 -1.715972 -0.562282 2.461623 0.066049 -0.204349 0.004494 0.000000 0.000000 0.000000 5.085380 1.027300 3.056734 -5.967060 14.203133 5.068317 -9.895487 11.072299 -1.033321 0.000000 0.000000 0.000000 3.521488 -1.047437 3.716707 0.421395 1.969833 -3.845722 -2.460644 -5.824723 -0.146019 -12.298851 0.604697 -67.136504 13.775444 -12.187365 -1.803266 0.000000 0.000000 0.000000 0.272620 -1.515887 4.560102 -4.148036 1.645696 19.613947 -11.193418 -9.938907 -3.673649 1.657168 33.236100 50.720691 3.760740 27.450170 -4.703801 0.000000 0.000000 0.000000 
1.931850 84.508965 -0.405466 0.000000 0.000000 0.000000 -179.686554 -42.124386 176.525802 -6.158940 19.617041 30.161221 37.190476 5.275901 -1.005499 -12.936577 10.831521 -26.556733 -24.707605 -2.911158 -8.401344 0.000000 0.000000 0.000000 179.985566 -44.283692 175.372716 -26.110719 -9.649866 -0.377740 35.669915 -10.812792 -1.118648 -13.727300 -10.846305 14.775665 7.755227 2.241510 -8.505410 0.000000 0.000000 0.000000 -178.455972 -47.624057 178.853968 6.386452 -0.842643 4.539069 -1.966926 -0.626566 2.421810 0.020613 -0.248840 0.041373 0.000000 0.000000 0.000000 5.128620 1.053320 2.910546 -6.271460 14.244201 5.113239 -10.484310 11.933577 -1.157354 0.000000 0.000000 0.000000 3.372613 -1.044669 3.516223 0.181738 1.231990 -3.254414 -1.538640 -5.133936 -0.247615 -10.493496 0.616606 -68.361690 12.064918 -13.128511 -2.833611 0.000000 0.000000 0.000000 0.185902 -1.535063 4.257964 -4.258872 3.097240 19.555701 -9.064219 -9.651973 -3.209244 0.162872 33.500145 51.472948 2.971392 27.701441 -4.626616 0.000000 0.000000 0.000000 
